<svg viewBox="0 0 920 500" xmlns="http://www.w3.org/2000/svg" width="920" height="500" font-family="Segoe UI,Arial,sans-serif">
  <defs>
    <marker id="arr" markerWidth="9" markerHeight="9" refX="6" refY="3" orient="auto">
      <path d="M0,0 L6,3 L0,6 Z" fill="#2f8f63"/>
    </marker>
  </defs>

  <!-- bandas -->
  <rect x="56" y="24"  width="808" height="96" rx="12" fill="#eafaf1" stroke="#cfeede"/>
  <rect x="56" y="142" width="808" height="96" rx="12" fill="#eafaf1" stroke="#cfeede"/>
  <rect x="56" y="260" width="808" height="96" rx="12" fill="#eafaf1" stroke="#cfeede"/>
  <rect x="56" y="378" width="808" height="96" rx="12" fill="#eafaf1" stroke="#cfeede"/>

  <!-- rótulos das camadas -->
  <text x="72" y="46"  font-size="13" font-weight="700" fill="#2f8f63">1 · Apresentação</text>
  <text x="72" y="164" font-size="13" font-weight="700" fill="#2f8f63">2 · Aplicação</text>
  <text x="72" y="282" font-size="13" font-weight="700" fill="#2f8f63">3 · Domínio (sem I/O)</text>
  <text x="72" y="400" font-size="13" font-weight="700" fill="#2f8f63">4 · Infraestrutura</text>

  <!-- componentes -->
  <g fill="#74e0aa" stroke="#2f8f63" stroke-width="1.5">
    <rect x="360" y="64"  width="200" height="44" rx="8"/>
    <rect x="330" y="182" width="260" height="44" rx="8"/>
    <rect x="64"  y="300" width="187" height="44" rx="8"/>
    <rect x="265" y="300" width="187" height="44" rx="8"/>
    <rect x="466" y="300" width="187" height="44" rx="8"/>
    <rect x="667" y="300" width="187" height="44" rx="8"/>
    <rect x="64"  y="418" width="187" height="44" rx="8"/>
    <rect x="265" y="418" width="187" height="44" rx="8"/>
    <rect x="466" y="418" width="187" height="44" rx="8"/>
    <rect x="667" y="418" width="187" height="44" rx="8"/>
  </g>
  <g font-size="12" font-weight="600" fill="#06301f" text-anchor="middle">
    <text x="460"   y="92">cli.py</text>
    <text x="460"   y="210">BatchRecommendationService</text>
    <text x="157.5" y="328">KNNRecommender</text>
    <text x="358.5" y="328">SimilarityStrategy</text>
    <text x="559.5" y="328">ExplanationBuilder</text>
    <text x="760.5" y="328">models</text>
    <text x="157.5" y="446">CsvVillagerRepository</text>
    <text x="358.5" y="446">CsvPlayerProfileReader</text>
    <text x="559.5" y="446">CsvRecommendationWriter</text>
    <text x="760.5" y="446">config</text>
  </g>

  <!-- dependências -->
  <g stroke="#2f8f63" stroke-width="1.8" fill="none">
    <line x1="460" y1="120" x2="460" y2="140" marker-end="url(#arr)"/>
    <line x1="460" y1="238" x2="460" y2="258" marker-end="url(#arr)"/>
    <line x1="460" y1="378" x2="460" y2="358" marker-end="url(#arr)" stroke-dasharray="5 4"/>
  </g>
  <text x="472" y="372" font-size="11" fill="#2f8f63">implementa interfaces do Domínio</text>
</svg>